# xmcd
#
# Track frame offsets: 
#        150
#        25040
#        57333
#        118326
#        163927
#        200753
#
# Disc length: 3321 seconds
#
# Revision: 0
# Processed by: cddbd v1.5.1PL0 Copyright (c) Steve Scherf et al.
# Submitted via: ExactAudioCopy v0.95a5
#
DISCID=550cf706
DTITLE=Hot Tuna - 1977-11-26 Palladium New York, NY
DYEAR=1977
DGENRE=Blues
TTITLE0=Water Song
TTITLE1=Hit Single #1
TTITLE2=Drivin' Around 
TTITLE3=Rock Me Baby
TTITLE4=Uncle Sam Blues
TTITLE5=Party Song
EXTD=
EXTT0=
EXTT1=
EXTT2=
EXTT3=
EXTT4=
EXTT5=
PLAYORDER=
